<?xml version="1.0" encoding="UTF-8"?>
<svg width="194px" height="18px" viewBox="0 0 194 18" version="1.1" xmlns="http://www.w3.org/2000/svg" xmlns:xlink="http://www.w3.org/1999/xlink">
    <!-- Generator: Sketch 48.2 (47327) - http://www.bohemiancoding.com/sketch -->
    <title>logo</title>
    <desc>Created with Sketch.</desc>
    <defs></defs>
    <g id="main-landing" stroke="none" stroke-width="1" fill="none" fill-rule="evenodd" transform="translate(-75.000000, -64.000000)">
        <g id="Group" fill="#333333">
            <g id="logo" transform="translate(75.000000, 64.000000)">
                <path d="M0.432,17 L0.432,0.9 L4.25,0.9 L8.482,7.708 L12.714,0.9 L16.532,0.9 L16.532,17 L13.013,17 L13.013,6.489 L8.482,13.366 L8.39,13.366 L3.905,6.558 L3.905,17 L0.432,17 Z M21.596,17 L21.596,0.9 L33.74,0.9 L33.74,4.051 L25.115,4.051 L25.115,7.317 L32.705,7.317 L32.705,10.468 L25.115,10.468 L25.115,13.849 L33.855,13.849 L33.855,17 L21.596,17 Z M38.2060001,17 L38.2060001,0.9 L44.4850001,0.9 C49.5450001,0.9 53.0410001,4.373 53.0410001,8.904 L53.0410001,8.95 C53.0410001,13.481 49.5450001,17 44.4850001,17 L38.2060001,17 Z M41.7480001,13.803 L44.4850001,13.803 C47.3830001,13.803 49.3380001,11.848 49.3380001,8.996 L49.3380001,8.95 C49.3380001,6.098 47.3830001,4.097 44.4850001,4.097 L41.7480001,4.097 L41.7480001,13.803 Z M57.5530001,17 L57.5530001,0.9 L61.0950001,0.9 L61.0950001,17 L57.5530001,17 Z M99.6550003,17 L106.555,0.785 L109.821,0.785 L116.721,17 L113.018,17 L111.546,13.389 L104.738,13.389 L103.266,17 L99.6550003,17 Z M106.003,10.261 L110.281,10.261 L108.142,5.04 L106.003,10.261 Z M120.405,17 L120.405,0.9 L126.983,0.9 C130.824,0.9 133.147,3.177 133.147,6.466 L133.147,6.512 C133.147,10.238 130.249,12.17 126.638,12.17 L123.947,12.17 L123.947,17 L120.405,17 Z M123.947,9.019 L126.753,9.019 C128.524,9.019 129.559,7.961 129.559,6.581 L129.559,6.535 C129.559,4.948 128.455,4.097 126.684,4.097 L123.947,4.097 L123.947,9.019 Z M137.13,17 L137.13,0.9 L140.672,0.9 L140.672,17 L137.13,17 Z M145.897,17 L145.897,0.9 L158.041,0.9 L158.041,4.051 L149.416,4.051 L149.416,7.317 L157.006,7.317 L157.006,10.468 L149.416,10.468 L149.416,13.849 L158.156,13.849 L158.156,17 L145.897,17 Z M162.507,17 L162.507,0.9 L165.773,0.9 L173.317,10.813 L173.317,0.9 L176.813,0.9 L176.813,17 L173.8,17 L166.003,6.765 L166.003,17 L162.507,17 Z M187.604001,17.23 C185.166001,17.23 182.705001,16.379 180.773001,14.654 L182.866001,12.147 C184.315001,13.343 185.833001,14.102 187.673001,14.102 C189.122001,14.102 189.996001,13.527 189.996001,12.584 L189.996001,12.538 C189.996001,11.641 189.444001,11.181 186.753001,10.491 C183.510001,9.663 181.417001,8.766 181.417001,5.569 L181.417001,5.523 C181.417001,2.602 183.763001,0.67 187.052001,0.67 C189.398001,0.67 191.399001,1.406 193.032001,2.717 L191.192001,5.385 C189.766001,4.396 188.363001,3.798 187.006001,3.798 C185.649001,3.798 184.936001,4.419 184.936001,5.201 L184.936001,5.247 C184.936001,6.305 185.626001,6.65 188.409001,7.363 C191.675001,8.214 193.515001,9.387 193.515001,12.193 L193.515001,12.239 C193.515001,15.436 191.077001,17.23 187.604001,17.23 Z" id="MEDIASAPIENS"></path>
                <path d="M77.206498,5.72116994 L75.1519092,13.389 L70.0230002,13.389 L68.5510002,17 L64.9400002,17 L71.8400002,0.785 L75.1060002,0.785 L77.206498,5.72116994 Z M71.2880002,10.261 L75.5660002,10.261 L73.4270002,5.04 L71.2880002,10.261 Z" id="Combined-Shape"></path>
                <path d="M85.8977902,15.7855625 L86.7981364,12.4254245 C88.142886,13.4595575 89.5631674,14.102 91.2560002,14.102 C92.7050002,14.102 93.5790002,13.527 93.5790002,12.584 L93.5790002,12.538 C93.5790002,11.641 93.0270002,11.181 90.3360002,10.491 C89.2773279,10.2207007 88.3412094,9.94304812 87.560451,9.58042773 L88.5892692,5.74082588 C88.8230015,6.43640082 89.69392,6.77423564 91.9920002,7.363 C95.2580002,8.214 97.0980002,9.387 97.0980002,12.193 L97.0980002,12.239 C97.0980002,15.436 94.6600002,17.23 91.1870002,17.23 C89.3593375,17.23 87.518749,16.7517508 85.8977902,15.7855625 Z M89.9400428,0.699670402 C90.1664621,0.680007315 90.3982889,0.67 90.6350002,0.67 C92.9810002,0.67 94.9820002,1.406 96.6150002,2.717 L94.7750002,5.385 C93.3490002,4.396 91.9460002,3.798 90.5890002,3.798 C89.8729818,3.798 89.3362609,3.97089418 88.9889742,4.24910676 L89.9400428,0.699670402 Z" id="Combined-Shape"></path>
            </g>
        </g>
    </g>
</svg>