<?xml version="1.0" standalone="no"?>
<!DOCTYPE svg PUBLIC "-//W3C//DTD SVG 20010904//EN"
 "http://www.w3.org/TR/2001/REC-SVG-20010904/DTD/svg10.dtd">
<svg version="1.0" xmlns="http://www.w3.org/2000/svg"
 width="700.000000pt" height="700.000000pt" viewBox="0 0 700.000000 700.000000"
 preserveAspectRatio="xMidYMid meet">
<metadata>
Created by potrace 1.11, written by Peter Selinger 2001-2013
</metadata>
<g transform="translate(0.000000,700.000000) scale(0.100000,-0.100000)"
fill="#000000" stroke="none">
<path d="M881 6115 c-4 -5 -7 -1196 -7 -2645 l1 -2635 571 -3 571 -2 1 1692
c0 931 1 1704 1 1717 1 17 30 -20 104 -135 57 -87 167 -255 245 -373 78 -117
142 -215 142 -217 0 -2 23 -35 50 -74 28 -39 50 -72 50 -74 0 -2 71 -111 158
-242 87 -132 221 -336 299 -454 376 -570 428 -646 443 -643 8 2 25 18 37 36
11 17 101 154 199 302 97 149 232 353 299 455 67 102 187 284 267 405 79 121
194 294 254 385 60 91 111 169 114 175 3 5 78 120 168 255 l162 245 0 -1728 0
-1727 580 0 580 0 0 2645 c0 1455 -3 2646 -7 2646 -5 1 -287 2 -629 3 l-621 1
-93 -150 c-51 -82 -103 -166 -115 -185 -12 -19 -71 -114 -130 -210 -60 -96
-123 -197 -140 -225 -18 -27 -196 -313 -395 -635 -200 -322 -379 -610 -398
-640 -19 -30 -53 -86 -77 -123 l-42 -69 -30 44 c-16 23 -32 50 -36 58 -4 8
-16 29 -27 45 -11 17 -29 46 -40 65 -11 19 -33 54 -48 77 -15 23 -40 63 -56
90 -16 26 -45 73 -64 103 -19 30 -45 71 -57 90 -12 19 -123 197 -245 395 -122
198 -233 376 -245 395 -55 84 -245 392 -245 396 0 3 -5 10 -10 17 -6 7 -51 77
-100 157 -49 80 -94 150 -100 157 -5 7 -10 14 -10 17 0 3 -18 34 -41 68 l-40
63 -620 0 c-408 0 -623 -3 -628 -10z"/>
</g>
</svg>
